HIERARCHY
ROOT Hips
{
	OFFSET 54.717499 -13.230914 85.614304
	CHANNELS 6 Xposition Yposition Zposition Xrotation Yrotation Zrotation
	JOINT spine
	{
		OFFSET 0.000000 -0.367607 6.392601
		CHANNELS 3 Xrotation Yrotation Zrotation
		JOINT spine1
		{
			OFFSET 0.000000 -0.000001 9.176109
			CHANNELS 3 Xrotation Yrotation Zrotation
			JOINT spine2
			{
				OFFSET 0.000000 -0.000002 8.792381
				CHANNELS 3 Xrotation Yrotation Zrotation
				JOINT Neck
				{
					OFFSET 0.000000 -1.076243 22.573708
					CHANNELS 3 Xrotation Yrotation Zrotation
					JOINT Head
					{
						OFFSET 0.000000 -0.000001 6.820114
						CHANNELS 3 Xrotation Yrotation Zrotation
						End Site
						{
							OFFSET 0.000000 5.444267 16.508499
						}
					}
				}
				JOINT RightShoulder
				{
					OFFSET -3.702209 0.515507 9.495087
					CHANNELS 3 Xrotation Yrotation Zrotation
					JOINT RightArm
					{
						OFFSET 0.000000 -0.000003 12.453697
						CHANNELS 3 Xrotation Yrotation Zrotation
						JOINT RightArmRoll
						{
							OFFSET 0.000000 -0.000001 6.286865
							CHANNELS 3 Xrotation Yrotation Zrotation
							JOINT RightForeArm
							{
								OFFSET 0.000000 -0.000003 18.311401
								CHANNELS 3 Xrotation Yrotation Zrotation
								JOINT RightForeArmRoll
								{
									OFFSET 0.000000 -0.000001 7.054825
									CHANNELS 3 Xrotation Yrotation Zrotation
									JOINT RightHand
									{
										OFFSET 0.000000 -0.000002 14.157501
										CHANNELS 3 Xrotation Yrotation Zrotation
										End Site
										{
											OFFSET 0.000000 0.000000 0.100006
										}
									}
								}
							}
						}
					}
				}
				JOINT LeftShoulder
				{
					OFFSET 3.702209 0.515507 9.495087
					CHANNELS 3 Xrotation Yrotation Zrotation
					JOINT LeftArm
					{
						OFFSET 0.000000 -0.000003 12.453697
						CHANNELS 3 Xrotation Yrotation Zrotation
						JOINT LeftArmRoll
						{
							OFFSET 0.000000 -0.000001 6.286865
							CHANNELS 3 Xrotation Yrotation Zrotation
							JOINT LeftForeArm
							{
								OFFSET 0.000000 -0.000003 18.311401
								CHANNELS 3 Xrotation Yrotation Zrotation
								JOINT LeftForeArmRoll
								{
									OFFSET 0.000000 -0.000001 7.054825
									CHANNELS 3 Xrotation Yrotation Zrotation
									JOINT LeftHand
									{
										OFFSET 0.000000 -0.000002 14.157501
										CHANNELS 3 Xrotation Yrotation Zrotation
										End Site
										{
											OFFSET 0.000000 0.000000 0.100006
										}
									}
								}
							}
						}
					}
				}
			}
		}
	}
	JOINT RightUpLeg
	{
		OFFSET -5.666149 0.871611 -1.039032
		CHANNELS 3 Xrotation Yrotation Zrotation
		JOINT RightUpLegRoll
		{
			OFFSET 0.000000 -0.000003 16.600502
			CHANNELS 3 Xrotation Yrotation Zrotation
			JOINT RightLeg
			{
				OFFSET 0.000000 0.000003 -20.557198
				CHANNELS 3 Xrotation Yrotation Zrotation
				JOINT RightLegRoll
				{
					OFFSET 0.000000 -0.000003 20.624397
					CHANNELS 3 Xrotation Yrotation Zrotation
					JOINT RightFoot
					{
						OFFSET 0.000000 -0.000003 17.166405
						CHANNELS 3 Xrotation Yrotation Zrotation
						JOINT RightToeBase
						{
							OFFSET 0.000000 -0.000003 14.350204
							CHANNELS 3 Xrotation Yrotation Zrotation
							End Site
							{
								OFFSET 0.006081 0.801060 6.949707
							}
						}
					}
				}
			}
		}
	}
	JOINT LeftUpLeg
	{
		OFFSET 5.666149 0.871611 -1.039032
		CHANNELS 3 Xrotation Yrotation Zrotation
		JOINT LeftUpLegRoll
		{
			OFFSET 0.000000 -0.000003 16.600601
			CHANNELS 3 Xrotation Yrotation Zrotation
			JOINT LeftLeg
			{
				OFFSET 0.000000 -0.000004 20.557098
				CHANNELS 3 Xrotation Yrotation Zrotation
				JOINT LeftLegRoll
				{
					OFFSET 0.000000 -0.000003 20.815094
					CHANNELS 3 Xrotation Yrotation Zrotation
					JOINT LeftFoot
					{
						OFFSET 0.000000 -0.000003 16.975708
						CHANNELS 3 Xrotation Yrotation Zrotation
						JOINT LeftToeBase
						{
							OFFSET 0.000000 -0.000003 14.350204
							CHANNELS 3 Xrotation Yrotation Zrotation
							End Site
							{
								OFFSET -0.027260 0.801060 6.949707
							}
						}
					}
				}
			}
		}
	}
}
MOTION
Frames: 6
Frame Time: 0.041667
54.295601 -13.492212 85.732498 -4.494522 2.092392 -2.480324 -0.851429 0.195067 -0.180133 2.300584 0.391022 -0.362647 3.945671 0.386701 -0.366925 7.533933 -5.465271 0.340981 1.901344 3.094898 0.817754 -4.388270 -64.256746 -5.654010 -48.711540 -115.511572 -40.771465 -0.000002 0.000023 -0.000004 3.221143 -13.164899 -0.075472 0.000001 0.000001 -3.001740 -5.000231 -7.998694 0.000154 -0.996644 52.307112 0.342615 -34.752802 118.719889 32.603792 -0.000001 -0.000002 0.000005 4.151289 10.143078 0.165942 0.000000 -0.000000 3.000000 -5.000233 7.998763 -0.000149 2.338601 -176.937553 0.151551 -179.999991 0.000005 -1.148996 174.548940 -2.517573 -0.517166 -0.000002 -0.000001 0.043997 68.692852 6.916054 2.088925 25.456959 -7.355614 0.000001 1.978877 172.596367 -1.502383 -0.000005 -0.000004 -1.070430 -7.514205 1.400265 0.677651 0.000003 0.000001 0.013339 68.993804 -6.278154 -3.719665 25.457466 7.355619 -0.000833 
54.293400 -13.493115 85.728699 -4.496660 2.095037 -2.479787 -0.852516 0.194908 -0.180148 2.298413 0.390777 -0.361833 3.943500 0.386458 -0.366158 7.550771 -5.465882 0.335198 1.888361 3.095401 0.811489 -4.395477 -64.267347 -5.663229 -48.784073 -115.502979 -40.780659 0.000001 0.000023 -0.000006 3.155345 -13.130662 -0.086074 0.000002 0.000001 -3.001740 -5.000230 -7.998695 0.000154 -0.977371 52.311268 0.319627 -34.757422 118.713360 32.607572 -0.000002 -0.000001 0.000003 4.151413 10.145273 0.165934 0.000001 -0.000000 3.000000 -5.000229 7.998764 -0.000149 2.341631 -176.939561 0.151503 -179.999991 0.000005 -1.148996 174.548257 -2.518576 -0.517293 -0.000002 -0.000001 0.043997 68.692292 6.915948 2.089041 25.456960 -7.355614 0.000001 1.978760 172.593375 -1.503780 -0.000005 -0.000005 -1.070720 -7.520206 1.398977 0.677941 0.000003 0.000001 0.013309 68.997307 -6.277974 -3.720034 25.457466 7.355619 -0.000832 
54.284302 -13.485513 85.727196 -4.498751 2.097753 -2.479217 -0.853627 0.194693 -0.180169 2.296193 0.390445 -0.360998 3.941270 0.386130 -0.365371 7.568358 -5.466208 0.329378 1.874658 3.095905 0.805124 -4.401930 -64.277975 -5.671592 -48.855817 -115.494059 -40.789835 -0.000000 0.000022 -0.000005 3.089942 -13.096895 -0.096476 0.000002 0.000000 -3.001739 -5.000230 -7.998692 0.000154 -0.957739 52.315728 0.296252 -34.761855 118.706789 32.611073 -0.000002 -0.000002 0.000004 4.151383 10.147667 0.165909 0.000000 -0.000000 3.000000 -5.000230 7.998763 -0.000150 2.344603 -176.941556 0.151385 -179.999991 0.000005 -1.148997 174.547533 -2.518573 -0.517324 -0.000002 -0.000001 0.043997 68.691650 6.915905 2.089075 25.456959 -7.355615 0.000001 1.978673 172.590370 -1.505212 -0.000005 -0.000004 -1.071020 -7.525983 1.397700 0.678237 0.000003 0.000001 0.013286 69.000627 -6.277850 -3.720222 25.457464 7.355621 -0.000833 
54.301998 -13.486013 85.803192 -4.500791 2.100498 -2.478615 -0.854761 0.194435 -0.180196 2.293932 0.390055 -0.360148 3.939011 0.385743 -0.364570 7.586464 -5.466336 0.323528 1.860454 3.096420 0.798690 -4.407853 -64.288718 -5.679362 -48.927295 -115.485057 -40.799220 -0.000002 0.000022 -0.000003 3.024803 -13.063706 -0.106701 0.000001 0.000000 -3.001740 -5.000229 -7.998694 0.000153 -0.937853 52.320588 0.272603 -34.766482 118.700259 32.614645 0.000000 -0.000001 0.000003 4.151261 10.150063 0.165883 -0.000000 -0.000000 3.000000 -5.000232 7.998765 -0.000149 2.347531 -176.943550 0.151217 -179.999991 0.000005 -1.148996 174.546837 -2.519563 -0.517449 -0.000002 -0.000001 0.043997 68.691090 6.915800 2.089186 25.456957 -7.355614 0.000002 1.978601 172.588375 -1.506641 -0.000005 -0.000004 -1.071330 -7.531619 1.396433 0.678537 0.000003 0.000001 0.013268 69.003851 -6.277789 -3.720428 25.457471 7.355621 -0.000834 
54.299999 -13.490913 85.789497 -4.502808 2.103274 -2.478003 -0.855904 0.194155 -0.180224 2.291642 0.389631 -0.359288 3.936720 0.385322 -0.363761 7.604876 -5.466350 0.317665 1.845957 3.096944 0.792217 -4.413481 -64.299469 -5.686798 -48.998493 -115.475932 -40.808635 -0.000001 0.000022 -0.000003 2.959832 -13.030595 -0.116811 0.000001 0.000000 -3.001739 -5.000232 -7.998695 0.000154 -0.917819 52.325441 0.248793 -34.772131 118.692910 32.619354 -0.000001 -0.000002 0.000003 4.151079 10.152457 0.165856 0.000000 -0.000000 3.000003 -5.000231 7.998763 -0.000149 2.350440 -176.945572 0.151020 -179.999991 0.000005 -1.148996 174.546126 -2.519560 -0.518478 -0.000002 -0.000001 0.043997 68.690441 6.915758 2.089221 25.456962 -7.355614 0.000001 1.978533 172.585370 -1.508115 -0.000005 -0.000004 -1.071650 -7.537176 1.395166 0.678839 0.000002 0.000001 0.013252 69.007061 -6.277692 -3.720528 25.457469 7.355621 -0.000833 
54.290699 -13.492214 85.725899 -4.504828 2.106059 -2.477389 -0.857047 0.193868 -0.180254 2.289352 0.389199 -0.358427 3.934430 0.384891 -0.362950 7.623362 -5.466345 0.311796 1.831384 3.097469 0.785735 -4.419045 -64.310220 -5.694155 -49.069746 -115.466861 -40.818146 0.000001 0.000023 -0.000003 2.894921 -12.997662 -0.126822 0.000004 0.000000 -3.001739 -5.000231 -7.998693 0.000153 -0.897748 52.330403 0.224940 -34.776769 118.686367 32.622862 0.000001 -0.000002 0.000004 4.150884 10.154857 0.165826 0.000000 0.000000 3.000001 -5.000230 7.998763 -0.000151 2.353350 -176.947566 0.150817 -179.999991 0.000004 -1.148997 174.545430 -2.520550 -0.518603 -0.000002 -0.000001 0.043997 68.689881 6.915651 2.089336 25.456962 -7.355615 0.000002 1.978477 172.582365 -1.509601 -0.000005 -0.000004 -1.071970 -7.542704 1.393899 0.679142 0.000003 0.000001 0.013238 69.010285 -6.277632 -3.720634 25.457464 7.355620 -0.000833 
